<?xml version="1.0" encoding="UTF-8" standalone="no"?>
<!-- Created with Inkscape (http://www.inkscape.org/) -->

<svg
   width="176.37711mm"
   height="135mm"
   viewBox="-10 -15 196.37711 165"
   version="1.1"
   id="svg1"
   xml:space="preserve"
   inkscape:version="1.4.2 (ebf0e94, 2025-05-08)"
   sodipodi:docname="VN.svg"
   inkscape:export-filename="VN1_blanco.pdf"
   inkscape:export-xdpi="96.036186"
   inkscape:export-ydpi="96.036186"
   xmlns:inkscape="http://www.inkscape.org/namespaces/inkscape"
   xmlns:sodipodi="http://sodipodi.sourceforge.net/DTD/sodipodi-0.dtd"
   xmlns:xlink="http://www.w3.org/1999/xlink"
   xmlns="http://www.w3.org/2000/svg"
   xmlns:svg="http://www.w3.org/2000/svg"><sodipodi:namedview
     id="namedview1"
     pagecolor="#ffffff"
     bordercolor="#000000"
     borderopacity="0.25"
     inkscape:showpageshadow="2"
     inkscape:pageopacity="0.0"
     inkscape:pagecheckerboard="0"
     inkscape:deskcolor="#d1d1d1"
     inkscape:document-units="mm"
     showguides="true"
     inkscape:zoom="0.70710678"
     inkscape:cx="332.34019"
     inkscape:cy="546.59354"
     inkscape:window-width="1920"
     inkscape:window-height="1051"
     inkscape:window-x="-9"
     inkscape:window-y="-9"
     inkscape:window-maximized="1"
     inkscape:current-layer="svg1"
     inkscape:export-bgcolor="#000000ff"><inkscape:page
       x="0"
       y="-2.8471236e-13"
       width="176.37711"
       height="165.97092"
       id="page2"
       margin="0"
       bleed="0" /></sodipodi:namedview><defs
     id="defs1"><rect
       x="359.8241"
       y="810"
       width="194.1759"
       height="38"
       id="rect3" /><rect
       x="359.8241"
       y="810"
       width="163.85095"
       height="17.008047"
       id="rect3-1-1" /></defs><g
     inkscape:label="Capa 1"
     inkscape:groupmode="layer"
     id="layer1"
     style="display:inline"
     transform="translate(-16.811443,-66.047932)"></g><g
     id="g3"
     transform="translate(-17.023886,-66.047932)"
     style="display:inline;fill:#ffffff;fill-opacity:1"><g
       id="g2"
       style="fill:#ffffff;fill-opacity:1"><g
         id="g4"
         style="fill:#ffffff;fill-opacity:1"><rect
           style="display:inline;fill:#ffffff;fill-opacity:1;stroke:none;stroke-width:0.345;stroke-linecap:round;stroke-linejoin:round;stroke-dasharray:none;paint-order:markers fill stroke"
           id="rect1"
           width="4.0968475"
           height="4.0968475"
           x="-60.282394"
           y="211.98244"
           ry="0"
           transform="rotate(-45)" /><rect
           style="display:inline;fill:#ffffff;fill-opacity:1;stroke:none;stroke-width:0.331739;stroke-linecap:round;stroke-linejoin:round;stroke-dasharray:none;paint-order:markers fill stroke"
           id="rect2"
           width="34.170059"
           height="0.60045213"
           x="114.8059"
           y="192.22008" /><rect
           style="display:inline;fill:#ffffff;fill-opacity:1;stroke:none;stroke-width:0.331739;stroke-linecap:round;stroke-linejoin:round;stroke-dasharray:none;paint-order:markers fill stroke"
           id="rect2-5"
           width="34.170059"
           height="0.60045213"
           x="71.338356"
           y="192.22008" /></g><path
         id="path10"
         style="baseline-shift:baseline;display:inline;overflow:visible;opacity:1;vector-effect:none;fill:#ffffff;fill-opacity:1;stroke-width:1.04161;stroke-linecap:round;stroke-linejoin:round;paint-order:markers fill stroke;enable-background:accumulate;stop-color:#000000;stop-opacity:1"
         d="m 57.344303,93.475948 c -6.307869,2.57366 -9.59613,6.356601 -9.863997,11.348662 -2.134303,2.76 -3.885832,5.42368 -5.312854,8.09821 l -0.356051,-1.86448 c 2.641191,-4.60114 2.322481,-9.6118 -0.956014,-15.031643 -2.845273,6.190103 -2.660032,11.198933 0.556556,15.025953 l 0.38809,2.57401 v 5.1e-4 c -2.100114,4.10225 -3.451055,8.25124 -4.262789,12.83074 l -0.538469,-1.77818 c 2.369253,-5.36409 1.437392,-10.83486 -2.795178,-16.41192 -2.409234,7.13453 -1.623966,12.61822 2.355929,16.45171 l 0.773596,2.97191 c -0.600421,3.89893 -0.83657,8.12297 -0.831991,12.8974 0.0012,1.27416 0.03434,2.54082 0.0987,3.79926 l -1.048515,-1.84382 c 1.254365,-6.4236 -1.110464,-12.14833 -7.094657,-17.17363 v 5.2e-4 c -0.860717,8.36035 1.348079,14.1352 6.626469,17.32504 l 1.601453,3.09335 c 0.341126,4.88316 1.152545,9.63624 2.389518,14.21464 l -0.165365,-0.11834 c -1.513991,-6.36741 -6.034356,-10.60193 -13.560929,-12.7031 2.673238,7.96807 7.07266,12.31305 13.197644,13.03486 l 0.789616,0.72812 c 1.2986,4.56584 3.021908,8.95246 5.125268,13.11445 l -0.717269,-0.33073 c -2.658257,-5.54746 -7.069357,-6.76488 -11.749153,-7.31842 3.302483,5.562 7.146346,8.09978 11.531596,7.61349 l 1.239717,0.63149 c 3.406261,6.59141 7.769882,12.60797 12.910323,17.86454 h 2.075843 c -6.828547,-6.71167 -12.33935,-14.76049 -16.108061,-23.72258 -6.1e-5,-1.5e-4 6e-5,-3.8e-4 0,-5.2e-4 l 0.690397,-1.15755 c 3.87873,-1.88163 5.735327,-5.98187 5.569169,-12.30003 -3.580745,2.89469 -6.59368,6.19862 -5.902482,12.16929 l -0.545186,0.83715 C 42.06219,164.96986 40.91592,161.46566 40.038383,157.856 l 0.63717,-1.89498 c 5.023137,-3.57812 6.790591,-9.50304 5.303036,-17.77462 -5.588439,5.46144 -7.515937,11.3471 -5.781559,17.65783 l -0.42323,0.8847 c -1.174391,-5.19125 -1.794206,-10.593 -1.794206,-16.1401 0,-0.96616 0.0078,-1.90666 0.02481,-2.8236 l 0.996321,-1.09399 c 5.107888,-1.71671 8.242076,-5.73927 9.403044,-12.06748 -6.333819,2.78673 -9.568159,6.7181 -9.702767,11.79412 l -0.678512,0.5457 c 0.114747,-4.59944 0.442133,-8.82927 1.349789,-13.04158 v -5.2e-4 l 3.111438,-3.71502 c 4.790281,-1.29131 7.783233,-5.26415 8.978263,-11.91865 v -5.2e-4 c -5.744341,2.55315 -8.846668,6.45258 -9.306409,11.69748 l -2.213818,1.5844 c 1.398268,-5.1899 3.778747,-10.45305 7.826396,-16.44757 5.072832,-1.5533 8.264774,-5.428591 9.576159,-11.625652 z" /><path
         d="m 172.94087,99.88876 h -1.76734 c 7.84447,11.61771 12.42405,25.62243 12.42405,40.69984 0,20.33762 -8.33242,38.7234 -21.77077,51.93171 h 2.07585 c 13.0991,-13.39503 21.17442,-31.7225 21.17442,-51.93171 0,-15.02446 -4.46346,-29.00894 -12.13621,-40.69984 z"
         style="baseline-shift:baseline;display:inline;overflow:visible;opacity:1;vector-effect:none;fill:#ffffff;fill-opacity:1;stroke-width:1.04161;stroke-linecap:round;stroke-linejoin:round;paint-order:markers fill stroke;enable-background:accumulate;stop-color:#000000;stop-opacity:1"
         id="path9" /><path
         d="M 149.20691,76.744951 C 137.99628,69.956143 124.84803,66.047929 110.7891,66.047929 c -14.058918,0 -27.207694,3.908214 -38.418324,10.697022 h 2.924886 c 10.499912,-5.871446 22.605083,-9.217526 35.493438,-9.217526 12.88836,0 24.99309,3.34608 35.49293,9.217526 z"
         style="display:inline;fill:#ffffff;fill-opacity:1;stroke-width:0.903702;stroke-linecap:round;stroke-linejoin:round;paint-order:markers fill stroke"
         id="path38" /></g><g
       id="g1"
       transform="matrix(1.1016119,0,0,1.1016119,-15.724012,-10.012996)"
       style="fill:#ffffff;fill-opacity:1"><g
         id="g6"
         style="fill:#ffffff;fill-opacity:1"><path
           style="display:inline;opacity:1;fill:#ffffff;fill-opacity:1;stroke:none;stroke-width:3.62766;stroke-linecap:round;stroke-linejoin:round;stroke-dasharray:none;stroke-opacity:1;paint-order:stroke markers fill"
           d="m 65.628145,99.474155 c 12.267984,-2.35599 18.42875,-0.20694 20.118521,5.981795 l 14.180607,43.18598 13.561317,-28.10368 c 2.56831,-5.32241 -2.7001,-10.87401 -10.86235,-4.97675 -0.38252,0.27635 -0.68941,0.0136 -0.57539,-0.16808 8.49441,-13.53502 22.58517,-7.18073 17.60093,2.98345 l -17.65439,36.00194 c -0.57225,1.16695 -2.3477,2.78148 -3.955721,2.76173 -1.778395,-0.0213 -3.721201,-1.47114 -4.298572,-3.16075 L 77.670325,106.94451 c -2.000095,-5.8531 -7.560153,-7.649435 -11.913548,-7.111445 -0.174556,0.0215 -0.321832,-0.32178 -0.128639,-0.35887 z"
           id="path41"
           sodipodi:nodetypes="sccsssssasssss" /><path
           style="fill:#ffffff;fill-opacity:1;stroke:none;stroke-width:1.9;stroke-linecap:round;stroke-linejoin:round;paint-order:stroke markers fill"
           d="m 124.57751,117.29921 c 0.58417,-1.27152 1.84191,-0.88696 2.1957,0.18386 l 11.94642,36.15755 9.33871,-30.61402 c 2.31648,-7.59385 14.27018,-2.85557 14.90031,-2.4873 0.0382,0.0223 0.10746,0.16065 0.006,0.17441 -1.29525,0.17512 -8.57934,-2.11544 -9.7322,2.80639 l -10.3263,44.08563 c -0.64066,2.73512 -6.23578,2.51966 -7.57405,-0.75642 l -12.04943,-29.49685 -12.26711,22.2203 c -2.89563,5.24505 -12.177188,4.87797 -14.859412,0.2201 6.102872,0.16841 8.726082,0.1787 11.577942,-5.83175 z"
           id="path2"
           sodipodi:nodetypes="sscsssssscscss" /></g></g></g></svg>


